<svg id="Layer_1" data-name="Layer 1" xmlns="http://www.w3.org/2000/svg" viewBox="0 0 1000 1000"><title>1990-Bread</title><path d="M298.08,596.54A16,16,0,0,1,285.27,571l160-214a16,16,0,1,1,25.63,19.15l-160,214A16,16,0,0,1,298.08,596.54Z"/><path d="M420,623a16,16,0,0,1-12.8-25.58l160-214a16,16,0,1,1,25.63,19.15l-159.95,214A16,16,0,0,1,420,623Z"/><path d="M542,649.48a16,16,0,0,1-12.8-25.58l160-214A16,16,0,0,1,714.73,429l-160,214A16,16,0,0,1,542,649.48Z"/><path d="M826.27,916H173.73a16,16,0,0,1-16-16V434a59.15,59.15,0,0,0-18-42.55c-31.26-30-47.79-64.23-47.79-99.09,0-57.82,44-111.23,123.79-150.4,76.2-37.4,177.16-58,284.28-58s208.07,20.59,284.27,58c79.82,39.17,123.78,92.58,123.78,150.4,0,34.87-16.53,69.14-47.79,99.1a59.12,59.12,0,0,0-18,42.54V900A16,16,0,0,1,826.27,916ZM189.73,884H810.27V434a91.28,91.28,0,0,1,27.86-65.65c25.17-24.11,37.93-49.68,37.93-76,0-22-9.06-43.71-26.93-64.44-18.33-21.27-44.89-40.52-79-57.24C698.28,135.43,602.33,116,500,116s-198.29,19.43-270.19,54.71c-34,16.72-60.62,36-78.95,57.24-17.87,20.73-26.93,42.41-26.93,64.44,0,26.3,12.77,51.87,37.93,76A91.28,91.28,0,0,1,189.73,434Z"/><path d="M765.53,855.26H234.47a16,16,0,0,1-16-16V434a120.18,120.18,0,0,0-36.71-86.4c-13.27-12.71-29.08-32.61-29.08-55.24,0-17,9.12-35.14,26.36-52.53,15.46-15.58,37.39-30.57,63.44-43.35,67-32.9,160.92-51.77,257.53-51.77s190.46,18.87,257.51,51.77c26.05,12.78,48,27.78,63.44,43.35,17.24,17.39,26.36,35.55,26.36,52.53,0,22.63-15.81,42.53-29.07,55.24A120.17,120.17,0,0,0,781.53,434V839.26A16,16,0,0,1,765.53,855.26Zm-515.06-32H749.53V434a152.32,152.32,0,0,1,46.58-109.5c12.21-11.7,19.21-23.42,19.21-32.14,0-15.35-22.5-42.91-71.9-67.15-62.81-30.83-151.53-48.5-243.41-48.5s-180.62,17.67-243.43,48.5c-49.4,24.24-71.9,51.8-71.9,67.15,0,8.72,7,20.44,19.22,32.14A152.31,152.31,0,0,1,250.47,434Z"/></svg>